o Neox Mesh
v 7.164478302001953e-05 -0.8574771881103516 72.55322265625
v -2.8133392333984375e-05 0.02696990966796875 73.03265380859375
v -53.00791931152344 0.02696990966796875 73.2928466796875
v -52.331607818603516 -0.8574790954589844 72.10333251953125
v 105.42218017578125 -0.857574462890625 -68.42813873291016
v 106.35437774658203 0.026868820190429688 -69.34211730957031
v 107.63679504394531 0.026891708374023438 -39.24766540527344
v 105.37332153320312 -0.8575553894042969 -39.243343353271484
v 46.43409729003906 -0.8575763702392578 -69.00699615478516
v 46.44072341918945 0.026868820190429688 -70.2201156616211
v -106.33985900878906 0.02696990966796875 73.01852416992188
v -106.28418731689453 0.026868820190429688 -69.18260192871094
v -104.93143463134766 -0.857574462890625 -68.26862335205078
v -104.98710632324219 -0.8574771881103516 72.11318969726562
v -7.104873657226562e-05 -0.857574462890625 -68.05595397949219
v 45.667842864990234 0.02696990966796875 73.03262329101562
v 45.67145538330078 -0.8574771881103516 72.36764526367188
v -0.00017368793487548828 0.0268707275390625 -69.71883392333984
v -106.19169616699219 0.026979446411132812 88.68209838867188
v -118.48748016357422 0.0269622802734375 64.20396423339844
v -109.2819595336914 0.026861190795898438 -83.9267349243164
v -0.00018703937530517578 0.026861190795898438 -83.59799194335938
v 106.19148254394531 0.026861190795898438 -82.76924133300781
v 118.48737335205078 0.02687835693359375 -64.76969146728516
v 45.667842864990234 0.02696990966796875 73.03262329101562
v 106.35785675048828 0.02696990966796875 73.03253173828125
v 106.191650390625 0.026979446411132812 88.93603515625
v 45.5863151550293 0.026979446411132812 88.13848876953125
v -118.41277313232422 0.02687835693359375 -64.88655090332031
v 118.48748779296875 0.0269622802734375 64.89334106445312
v 46.50830841064453 0.026861190795898438 -82.76918029785156
v 46.44072341918945 0.026868820190429688 -70.2201156616211
v -1.2755393981933594e-05 0.026979446411132812 88.13853454589844
v 105.00489807128906 -0.8574771881103516 72.12721252441406
v 46.50830841064453 0.026861190795898438 -82.76918029785156
v 46.43409729003906 -0.8575763702392578 -69.00699615478516
v 45.67145538330078 -0.8574771881103516 72.36764526367188
v 45.5863151550293 0.026979446411132812 88.13848876953125
vn -0.00011033913324354216 0.8991066813468933 -0.4377296566963196
vn -0.00010997866775142029 0.8994984030723572 -0.43692412972450256
vn 0.0008025253191590309 0.9325701594352722 -0.360988050699234
vn 0.0007640810799784958 0.9268211722373962 -0.375502347946167
vn -0.19554077088832855 0.9458508491516113 0.2590944766998291
vn -0.07648835331201553 0.9922813177108765 0.09760809689760208
vn -0.23295806348323822 0.972485363483429 0.0016926031094044447
vn -0.23707465827465057 0.9714899063110352 0.0017413310706615448
vn 0.00012500058801379055 0.9514656662940979 0.3077550232410431
vn 9.23811094253324e-05 0.9529597759246826 0.3030969500541687
vn 0.09345333278179169 0.9925430417060852 -0.07826147973537445
vn 0.09248565137386322 0.9933503866195679 0.06856664270162582
vn 0.20512957870960236 0.9482135772705078 0.24251361191272736
vn 0.20835213363170624 0.9369563460350037 -0.28053921461105347
vn 0.002336738631129265 0.9593280553817749 0.2822839021682739
vn -0.0008953394717536867 0.896280825138092 -0.44348618388175964
vn -0.0008949057082645595 0.8963779807090759 -0.44328972697257996
vn 0.0023749363608658314 0.9586506485939026 0.2845757007598877
vn -4.0546442647837466e-08 1.0 -6.114661346146022e-07
vn 1.3532758202927653e-07 1.0 -6.685201583422895e-07
vn 1.7443382205328817e-07 1.0 -6.093741831136867e-07
vn 6.584881084847893e-09 1.0 -6.239405934138631e-07
vn -1.5230293115564564e-07 1.0 -5.803432259199326e-07
vn -4.5431372086568445e-07 1.0 -6.853832132946991e-07
vn -0.0008953394135460258 0.896280825138092 -0.44348615407943726
vn -0.07581163942813873 0.9929502606391907 -0.09111735224723816
vn 5.508197276071769e-08 1.0 -6.110079198151652e-07
vn 2.0230890296346615e-09 1.0 -6.231850875337841e-07
vn 3.0924172733648447e-07 1.0 -6.673260486422805e-07
vn -1.2605037902346794e-08 1.0 -6.565554144799535e-07
vn 1.358117884819876e-08 1.0 -6.18524268247711e-07
vn 9.238111670129001e-05 0.9529597759246826 0.3030969500541687
vn -1.5637561245895881e-09 1.0 -6.312856157819624e-07
vn -0.16895076632499695 0.9286092519760132 -0.3303641974925995
vn 1.358117884819876e-08 1.0 -6.18524268247711e-07
vn 0.00012500058801379055 0.9514656662940979 0.3077550530433655
vn -0.0008949055918492377 0.8963779807090759 -0.44328972697257996
vn 2.0230890296346615e-09 1.0 -6.231850875337841e-07
vt 0.2897999882698059 0.11009997129440308
vt 0.29010000824928284 0.09920001029968262
vt 0.5993000268936157 0.09920001029968262
vt 0.5950000286102295 0.11009997129440308
vt 0.8999000191688538 0.902400016784668
vt 0.9082000255584717 0.9132000207901001
vt 0.90829998254776 0.7245999574661255
vt 0.8999999761581421 0.7245999574661255
vt 0.5667999982833862 0.902400016784668
vt 0.5667999982833862 0.9132000207901001
vt 0.9085000157356262 0.09920001029968262
vt 0.9082000255584717 0.9132000207901001
vt 0.8999000191688538 0.902400016784668
vt 0.8999999761581421 0.11009997129440308
vt 0.28940001130104065 0.902400016784668
vt 0.021199999377131462 0.09920001029968262
vt 0.021199999377131462 0.11009997129440308
vt 0.2892000079154968 0.9132000207901001
vt 0.9089000225067139 0.013199985027313232
vt 0.9807999730110168 0.15390002727508545
vt 0.9082000255584717 0.9843999743461609
vt 0.289000004529953 0.9843999743461609
vt 0.9082000255584717 0.9843999743461609
vt 0.9801999926567078 0.8411999940872192
vt 0.5667999982833862 0.09920001029968262
vt 0.9085000157356262 0.09920001029968262
vt 0.9089000225067139 0.013199985027313232
vt 0.5667999982833862 0.013199985027313232
vt 0.9801999926567078 0.8411999940872192
vt 0.9807999730110168 0.15390002727508545
vt 0.021199999377131462 0.9843999743461609
vt 0.021199999377131462 0.9132000207901001
vt 0.29010000824928284 0.013199985027313232
vt 0.8999999761581421 0.11009997129440308
vt 0.5667999982833862 0.9843999743461609
vt 0.021199999377131462 0.902400016784668
vt 0.5667999982833862 0.11009997129440308
vt 0.021199999377131462 0.013199985027313232
vt 0.500000536441803 0.09119188785552979
vt 0.5000001192092896 0.08838671445846558
vt 0.2763146460056305 0.08686435222625732
vt 0.27916860580444336 0.09382438659667969
vt 0.9448662996292114 0.9160887002944946
vt 0.9488000273704529 0.9214364290237427
vt 0.9542115926742554 0.74535071849823
vt 0.9446600675582886 0.7453253865242004
vt 0.6959452033042908 0.9194755554199219
vt 0.6959731578826904 0.9265736937522888
vt 0.051261723041534424 0.08846938610076904
vt 0.051496654748916626 0.9205030202865601
vt 0.05720508098602295 0.9151552319526672
vt 0.05697014927864075 0.09376662969589233
vt 0.49999988079071045 0.9139109253883362
vt 0.6927118301391602 0.08838701248168945
vt 0.6927270293235779 0.09227776527404785
vt 0.499999463558197 0.9236406087875366
vt 0.05188697576522827 0.0
vt 5.960464477539062e-07 0.14923590421676636
vt 0.05188623070716858 0.9999985694885254
vt 0.49999940395355225 0.9999992847442627
vt 0.9481126070022583 1.0
vt 0.9999994039535522 0.8594775199890137
vt 0.6927118301391602 0.08838701248168945
vt 0.9488146901130676 0.08838748931884766
vt 0.9481133222579956 1.3113021850585938e-06
vt 0.6923677921295166 9.5367431640625e-07
vt 2.9802322387695312e-08 0.8511279225349426
vt 1.0 0.14052343368530273
vt 0.6962583661079407 0.9999995827674866
vt 0.6959731578826904 0.9265736937522888
vt 0.5000001788139343 6.556510925292969e-07
vt 0.9431053996086121 0.09368467330932617
vt 0.6962583661079407 0.9999995827674866
vt 0.6959452033042908 0.9194755554199219
vt 0.6927270293235779 0.09227776527404785
vt 0.6923677921295166 9.5367431640625e-07
f 3 2 1
f 1 4 3
f 7 6 5
f 5 8 7
f 6 10 9
f 9 5 6
f 13 12 11
f 11 14 13
f 4 1 15
f 1 2 16
f 16 17 1
f 18 12 13
f 13 15 18
f 20 19 11
f 22 21 12
f 12 18 22
f 24 23 6
f 27 26 25
f 25 28 27
f 12 29 20
f 20 11 12
f 21 29 12
f 7 24 6
f 27 30 26
f 32 31 22
f 22 18 32
f 3 33 2
f 4 14 11
f 11 3 4
f 11 19 3
f 34 26 7
f 7 8 34
f 5 9 8
f 7 26 30
f 30 24 7
f 23 35 10
f 10 6 23
f 19 33 3
f 14 4 13
f 13 4 15
f 36 15 1
f 1 17 36
f 34 37 25
f 25 26 34
f 33 38 16
f 16 2 33
f 36 32 18
f 18 15 36
f 8 9 37
f 37 34 8
